<svg xmlns="http://www.w3.org/2000/svg" width="128" height="128" viewBox="0 0 128 128" fill="none">
  <defs>
    <linearGradient id="panel" x1="14" y1="12" x2="114" y2="116" gradientUnits="userSpaceOnUse">
      <stop offset="0" stop-color="#23262d" />
      <stop offset="1" stop-color="#111318" />
    </linearGradient>
    <filter id="shadow" x="0" y="0" width="128" height="128" filterUnits="userSpaceOnUse">
      <feDropShadow dx="0" dy="10" stdDeviation="12" flood-color="#111827" flood-opacity="0.18"/>
    </filter>
  </defs>
  <g filter="url(#shadow)">
    <rect x="6" y="6" width="116" height="116" rx="32" fill="url(#panel)"/>
    <rect x="8" y="8" width="112" height="112" rx="30" stroke="#2b2f36" stroke-width="2"/>
  </g>
  <path d="M34 72V56c0-16.568 13.432-30 30-30s30 13.432 30 30v16" stroke="#FFFFFF" stroke-width="10" stroke-linecap="round"/>
  <rect x="27" y="58" width="13" height="30" rx="6.5" fill="#FFFFFF"/>
  <rect x="88" y="58" width="13" height="30" rx="6.5" fill="#FFFFFF"/>
  <rect x="39" y="51" width="15" height="40" rx="7.5" fill="#FFFFFF"/>
  <rect x="74" y="51" width="15" height="40" rx="7.5" fill="#FFFFFF"/>
  <path d="M50 37c8-7 20-7 28 0" stroke="#FFFFFF" stroke-width="10" stroke-linecap="round"/>
</svg>