<svg xmlns="http://www.w3.org/2000/svg" viewBox="0 0 256 256">
  <defs><linearGradient id="j" x1="0" y1="0" x2="1" y2="1"><stop stop-color="#e8efff"/><stop offset="1" stop-color="#586da9"/></linearGradient></defs>
  <rect width="256" height="256" rx="72" fill="url(#j)"/>
  <path d="m31 72 55-23m-42 46 37-16m142-41-29 12" stroke="#fff" stroke-width="7" stroke-linecap="round" opacity=".62"/>
  <circle cx="204" cy="50" r="15" fill="#ffe88c"/>
  <circle cx="76" cy="91" r="30" fill="#7d563d" stroke="#46382f" stroke-width="7"/><circle cx="180" cy="91" r="30" fill="#7d563d" stroke="#46382f" stroke-width="7"/>
  <path d="M48 157c0-55 33-91 80-91s80 36 80 91c0 50-33 78-80 78s-80-28-80-78Z" fill="#96684a" stroke="#46382f" stroke-width="7"/>
  <path d="M86 168c0-27 19-45 42-45s42 18 42 45c0 36-19 57-42 67-23-10-42-31-42-67Z" fill="#e9c69d"/>
  <ellipse cx="96" cy="146" rx="8" ry="11" fill="#292823"/><ellipse cx="160" cy="146" rx="8" ry="11" fill="#292823"/>
  <path d="m128 164-11 9c4 11 18 11 22 0Z" fill="#4a332a"/><path d="M128 184c-4 11-17 13-25 6m25-6c4 11 17 13 25 6" fill="none" stroke="#594137" stroke-width="5" stroke-linecap="round"/>
  <path d="M79 170H42m37 14-31 8m129-22h37m-37 14 31 8" stroke="#fff1dd" stroke-width="5" stroke-linecap="round" opacity=".72"/>
</svg>
