<svg xmlns="http://www.w3.org/2000/svg" width="512" height="512" viewBox="0 0 512 512" fill="none">
  <defs>
    <linearGradient id="panel" x1="72" y1="64" x2="440" y2="448" gradientUnits="userSpaceOnUse">
      <stop offset="0" stop-color="#23262D" />
      <stop offset="1" stop-color="#111318" />
    </linearGradient>
    <filter id="shadow" x="24" y="26" width="464" height="460" filterUnits="userSpaceOnUse">
      <feDropShadow dx="0" dy="18" stdDeviation="18" flood-color="#111827" flood-opacity="0.28" />
    </filter>
  </defs>
  <g filter="url(#shadow)">
    <rect x="56" y="48" width="400" height="400" rx="112" fill="url(#panel)" />
    <rect x="62" y="54" width="388" height="388" rx="106" stroke="#2B2F36" stroke-width="12" />
  </g>
  <path d="M148 276V224C148 159.935 199.935 108 264 108C328.065 108 380 159.935 380 224V276" stroke="#FFFFFF" stroke-width="34" stroke-linecap="round" />
  <rect x="126" y="228" width="48" height="116" rx="24" fill="#FFFFFF" />
  <rect x="338" y="228" width="48" height="116" rx="24" fill="#FFFFFF" />
  <rect x="170" y="208" width="54" height="144" rx="27" fill="#FFFFFF" />
  <rect x="288" y="208" width="54" height="144" rx="27" fill="#FFFFFF" />
  <path d="M228 146C246 129 282 129 300 146" stroke="#FFFFFF" stroke-width="34" stroke-linecap="round" />
</svg>
