<svg xmlns="http://www.w3.org/2000/svg" width="128" height="128" viewBox="0 0 128 128" fill="none">
  <defs>
    <linearGradient id="panel" x1="18" y1="16" x2="110" y2="112" gradientUnits="userSpaceOnUse">
      <stop offset="0" stop-color="#23262D" />
      <stop offset="1" stop-color="#111318" />
    </linearGradient>
    <filter id="shadow" x="0" y="0" width="128" height="128" filterUnits="userSpaceOnUse">
      <feDropShadow dx="0" dy="10" stdDeviation="12" flood-color="#111827" flood-opacity="0.18" />
    </filter>
  </defs>
  <g filter="url(#shadow)">
    <rect x="10" y="10" width="108" height="108" rx="30" fill="url(#panel)" />
    <rect x="12" y="12" width="104" height="104" rx="28" stroke="#2B2F36" stroke-width="2" />
  </g>
  <path d="M35 71V58C35 41.984 47.984 29 64 29C80.016 29 93 41.984 93 58V71" stroke="#FFFFFF" stroke-width="9" stroke-linecap="round" />
  <rect x="29" y="59" width="12" height="29" rx="6" fill="#FFFFFF" />
  <rect x="87" y="59" width="12" height="29" rx="6" fill="#FFFFFF" />
  <rect x="40" y="54" width="13" height="36" rx="6.5" fill="#FFFFFF" />
  <rect x="75" y="54" width="13" height="36" rx="6.5" fill="#FFFFFF" />
  <path d="M52 38C59 32 69 32 76 38" stroke="#FFFFFF" stroke-width="9" stroke-linecap="round" />
</svg>
